<?xml version="1.0" encoding="UTF-8"?>
<svg id="Layer_1" xmlns="http://www.w3.org/2000/svg" xmlns:xlink="http://www.w3.org/1999/xlink" version="1.1" viewBox="0 0 111.76 49.6">
  <!-- Generator: Adobe Illustrator 29.1.0, SVG Export Plug-In . SVG Version: 2.1.0 Build 142)  -->
  <defs>
    <style>
      .st0 {
        fill: url(#New_Gradient_Swatch_101);
      }

      .st1 {
        fill: url(#New_Gradient_Swatch_102);
      }

      .st2 {
        fill: url(#New_Gradient_Swatch_103);
      }

      .st3 {
        fill: url(#New_Gradient_Swatch_104);
      }

      .st4 {
        fill: url(#New_Gradient_Swatch_105);
      }

      .st5 {
        fill: url(#New_Gradient_Swatch_106);
      }

      .st6 {
        fill: url(#New_Gradient_Swatch_107);
      }

      .st7 {
        fill: url(#New_Gradient_Swatch_108);
      }

      .st8 {
        fill: url(#New_Gradient_Swatch_21);
      }

      .st9 {
        fill: url(#New_Gradient_Swatch_22);
      }

      .st10 {
        fill: url(#New_Gradient_Swatch_10);
      }

      .st11 {
        fill: #fff;
      }

      .st12 {
        fill: url(#New_Gradient_Swatch_2);
      }
    </style>
    <linearGradient id="New_Gradient_Swatch_10" data-name="New Gradient Swatch 10" x1="-22.91" y1="938.76" x2="-22.9" y2="938.76" gradientTransform="translate(234.35 -254.27) rotate(30.29) scale(.51 .35)" gradientUnits="userSpaceOnUse">
      <stop offset="0" stop-color="gray"/>
      <stop offset=".09" stop-color="#8c8c8c"/>
      <stop offset=".27" stop-color="#aeaeae"/>
      <stop offset=".5" stop-color="#e4e4e4"/>
      <stop offset=".5" stop-color="#e6e6e6"/>
      <stop offset=".58" stop-color="#ddd"/>
      <stop offset=".72" stop-color="#c4c4c4"/>
      <stop offset=".89" stop-color="#9d9d9d"/>
      <stop offset="1" stop-color="gray"/>
    </linearGradient>
    <linearGradient id="New_Gradient_Swatch_101" data-name="New Gradient Swatch 10" x1="-53.24" y1="925.38" x2="-22.92" y2="925.38" gradientTransform="translate(234.36 -254.27) rotate(30.29) scale(.51 .35)" xlink:href="#New_Gradient_Swatch_10"/>
    <linearGradient id="New_Gradient_Swatch_102" data-name="New Gradient Swatch 10" x1="50.82" y1="5.6" x2="65.05" y2="13.91" gradientTransform="matrix(1,0,0,1,0,0)" xlink:href="#New_Gradient_Swatch_10"/>
    <linearGradient id="New_Gradient_Swatch_103" data-name="New Gradient Swatch 10" x1="-23.04" y1="970.1" x2="-23.04" y2="970.1" gradientTransform="translate(242.14 -267.42) rotate(30.29) scale(.51 .35)" xlink:href="#New_Gradient_Swatch_10"/>
    <linearGradient id="New_Gradient_Swatch_104" data-name="New Gradient Swatch 10" x1="-52.96" y1="862.71" x2="-22.64" y2="862.71" gradientTransform="translate(218.77 -227.98) rotate(30.29) scale(.51 .35)" xlink:href="#New_Gradient_Swatch_10"/>
    <linearGradient id="New_Gradient_Swatch_105" data-name="New Gradient Swatch 10" x1="-22.63" y1="876.09" x2="-22.63" y2="876.09" gradientTransform="translate(218.77 -227.98) rotate(30.29) scale(.51 .35)" xlink:href="#New_Gradient_Swatch_10"/>
    <linearGradient id="New_Gradient_Swatch_106" data-name="New Gradient Swatch 10" x1="-22.5" y1="844.75" x2="-22.5" y2="844.75" gradientTransform="translate(210.98 -214.83) rotate(30.29) scale(.51 .35)" xlink:href="#New_Gradient_Swatch_10"/>
    <linearGradient id="New_Gradient_Swatch_107" data-name="New Gradient Swatch 10" x1="-52.82" y1="831.36" x2="-22.5" y2="831.36" gradientTransform="translate(210.98 -214.83) rotate(30.29) scale(.51 .35)" xlink:href="#New_Gradient_Swatch_10"/>
    <linearGradient id="New_Gradient_Swatch_108" data-name="New Gradient Swatch 10" x1="-53.1" y1="894.08" x2="-22.78" y2="894.08" gradientTransform="translate(226.57 -241.13) rotate(30.29) scale(.51 .35)" xlink:href="#New_Gradient_Swatch_10"/>
    <linearGradient id="New_Gradient_Swatch_2" data-name="New Gradient Swatch 2" x1="44.06" y1="16.95" x2="58.34" y2="25.29" gradientUnits="userSpaceOnUse">
      <stop offset=".2" stop-color="#004993"/>
      <stop offset=".45" stop-color="#6692be"/>
      <stop offset=".51" stop-color="#80a4c9"/>
      <stop offset=".8" stop-color="#004993"/>
    </linearGradient>
    <linearGradient id="New_Gradient_Swatch_21" data-name="New Gradient Swatch 2" x1="46.3" y1="13.16" x2="60.58" y2="21.5" xlink:href="#New_Gradient_Swatch_2"/>
    <linearGradient id="New_Gradient_Swatch_22" data-name="New Gradient Swatch 2" x1="48.55" y1="9.38" x2="62.82" y2="17.72" xlink:href="#New_Gradient_Swatch_2"/>
  </defs>
  <g>
    <path class="st11" d="M51.21,40.27v-3.52h1.11c1.56,0,3.26.06,3.26,1.65,0,1.69-1.64,1.87-3.59,1.87h-.78M51.21,42.2h1.43l4.31,5.19h4.51l-5.27-5.63c1.11-.35,3.41-1.03,3.41-3.39,0-3.45-4.67-3.54-6.97-3.54h-4.84c-.51,0-.63.05-.63.39v12.19s.12,0,.63,0h3.41s0-5.19,0-5.19Z"/>
    <path class="st11" d="M82.39,45.78c-2.24,0-3.2-1.8-3.2-4.66s.96-4.68,3.2-4.68,3.2,1.8,3.2,4.68-.96,4.66-3.2,4.66M89.84,41.12c0-4.44-2.84-6.6-7.45-6.6s-7.45,2.15-7.45,6.6,2.81,6.59,7.45,6.59,7.45-2.15,7.45-6.59Z"/>
    <path class="st11" d="M38.05,41.82h5.66v-1.98h-5.66v-3.03h6.31l.86-1.98h-10.63c-.41,0-.55.05-.58.29v12.28h11.07s0-.38,0-.38v-1.6s-7.03,0-7.03,0v-3.6Z"/>
    <path class="st11" d="M105.05,34.83h-2.81s.08,7.59.08,8.17l-6.75-7.93c-.18-.2-.24-.24-.69-.24h-2.52c-.39,0-.53.05-.56.27v12.3s.12,0,.63,0h2.18c.51,0,.63,0,.63,0v-6.99c0-.84-.03-1.4-.03-1.64,0,0,6.9,8.07,7.17,8.37.28.31.69.26.69.26h2.6s0-12.57,0-12.57h-.63Z"/>
    <path class="st11" d="M5.26,41.82h5.66v-1.98h-5.66v-3.03h6.31l.86-1.98H1.8c-.45,0-.57.06-.58.36v12.21h11.07s0-.38,0-.38v-1.6s-7.03,0-7.03,0v-3.6Z"/>
    <path class="st11" d="M22.98,42.55l-4.8-7.48c-.18-.2-.24-.24-.69-.24h-3.08v12.57s.12,0,.63,0h2.18c.51,0,.63,0,.63,0v-6.99c0-.84-.02-1.18-.02-1.41,0,0,4.74,7.59,5.21,8.12h.03c.47-.54,4.97-8.12,4.97-8.12,0,.24-.03.57-.03,1.41v6.99s.12,0,.63,0h2.18c.51,0,.63,0,.63,0v-12.57h-.63s-2.45,0-2.45,0c-.45,0-.51.04-.69.24l-4.56,7.48h-.13Z"/>
    <path class="st11" d="M71.61,40.62c-2.49-1.19-5.88-1.3-5.88-2.69,0-1.1,1.1-1.43,2.4-1.43,2.04,0,3.79.81,3.96.81.11,0,.23-.07.31-.18l.19-.25,1.01-1.29h0s0,0,0,0c0,0,0,0-.03-.01-.06-.03-.24-.11-.48-.21-.2-.08-.32-.12-.39-.14-1.01-.34-2.87-.71-4.69-.71-3.28,0-6.22,1.1-6.22,3.74,0,1.52.7,2.49,2.2,3.07,2.89,1.14,5.78,1.07,5.78,2.71,0,1.14-.71,1.69-2.29,1.69-2.43,0-4.53-.81-4.69-.81-.11,0-.26.07-.31.18l-.31.58-.54,1.01.44.17c.9.36,3.26.86,5.53.86,3.57,0,6.18-1.17,6.11-3.87-.03-1.39-.65-2.52-2.1-3.21Z"/>
  </g>
  <g>
    <path class="st10" d="M59.95,21.39v.02s0-.01,0-.02Z"/>
    <path class="st0" d="M61.14,17.98l-.09-.11-4.51-5.52-.03-.03-4.37-5.34c-.84-1-.77-1.2-.72-1.3l-1.58,2.66s-.03.09-.02.18c.04.15.19.36.38.61l.09.11,4.51,5.52.03.03,4.37,5.35c.8.96.81,1.16.74,1.28l1.59-2.67c.07-.13-.12-.4-.4-.74Z"/>
  </g>
  <g>
    <path class="st1" d="M63.38,14.2l-.09-.11-4.51-5.52-.03-.03-4.37-5.34c-.84-1-.77-1.2-.72-1.31l-1.58,2.66s-.04.09-.01.18c.05.15.19.36.38.6l.09.11,4.51,5.52.03.03,4.37,5.35c.8.96.81,1.16.74,1.28l1.59-2.67c.07-.13-.12-.4-.4-.74Z"/>
    <path class="st2" d="M62.19,17.61v.02s0-.01,0-.02Z"/>
  </g>
  <g>
    <path class="st3" d="M57.03,26.32s.04-.1.01-.19c-.05-.14-.2-.34-.39-.58l-.09-.11-4.51-5.52-.03-.03-4.37-5.34c-.84-1-.77-1.2-.72-1.3l-1.6,2.68c-.07.13.1.41.38.75l.09.11,4.51,5.52.03.03,4.37,5.35c.8.96.81,1.16.74,1.28l1.57-2.64Z"/>
    <path class="st4" d="M55.46,28.96v.02s0-.01,0-.02Z"/>
  </g>
  <g>
    <path class="st5" d="M53.22,32.75v.02s0-.01,0-.02Z"/>
    <path class="st6" d="M54.78,30.12h0s.06-.08.02-.21c-.05-.14-.2-.34-.39-.58l-.09-.11-4.51-5.52-.03-.03-4.37-5.34c-.84-1-.77-1.2-.72-1.3l-1.59,2.68c-.07.13.1.41.38.75l.09.11,4.51,5.52.03.03,4.36,5.35c.8.96.81,1.15.74,1.27l1.56-2.63Z"/>
  </g>
  <path class="st7" d="M52.6,18.56l4.37,5.34c.84,1,.81,1.17.73,1.29l1.6-2.69c.07-.13-.12-.4-.4-.74l-.09-.11-4.51-5.52-.03-.03-4.37-5.34c-.84-1-.77-1.2-.72-1.3l-1.59,2.68c-.07.13.1.41.38.75l.09.11,4.51,5.52.03.03Z"/>
  <path class="st12" d="M57.89,22.27l-6.02-2.51h-.04s-6.22-2.6-6.22-2.6l-.1-.04c-.19-.07-.61-.2-.78-.1-.02.01-.04.03-.05.05l-1.57,2.64c.07-.08.26-.24,1.4.26l6.02,2.51.04.02,6.22,2.59.09.04c.19.07.62.2.79.1.02-.01.07-.07.08-.09l1.54-2.6c-.07.08-.26.23-1.4-.26Z"/>
  <path class="st8" d="M60.13,18.48l-6.02-2.51h-.04s-6.22-2.6-6.22-2.6l-.1-.04c-.19-.07-.61-.2-.78-.1-.02.01-.04.03-.05.05l-1.57,2.64c.07-.08.26-.24,1.4.26l6.02,2.51.04.02,6.22,2.59.09.04c.19.07.62.2.79.1.02-.01.07-.07.08-.09l1.54-2.6c-.07.08-.26.23-1.4-.26Z"/>
  <path class="st9" d="M62.37,14.7l-6.02-2.51h-.04s-6.22-2.6-6.22-2.6l-.1-.04c-.19-.07-.61-.2-.78-.1-.02.01-.04.03-.05.05l-1.57,2.64c.07-.08.26-.23,1.4.26l6.02,2.51.04.02,6.22,2.59.09.04c.19.07.61.2.79.1.02-.01.07-.07.08-.09l1.54-2.61c-.07.08-.26.23-1.4-.26Z"/>
  <path class="st11" d="M107.98,45.95v1.45h-.23v-1.45h-.55v-.14h1.33v.14h-.55Z"/>
  <path class="st11" d="M110.32,47.41v-1.46l-.56,1.46h-.21l-.57-1.44v1.44h-.19v-1.59h.34l.55,1.36.53-1.36h.33v1.59h-.22Z"/>
</svg>